<svg xmlns="http://www.w3.org/2000/svg" width="143.663" height="257.596" viewBox="0 0 143.663 257.596">
  <g id="Group_7" data-name="Group 7" transform="translate(1.029 -1072.353)">
    <line id="Line_2" data-name="Line 2" x2="138" y2="95" transform="translate(3.5 1074)" fill="none" stroke="#05c2c9" stroke-width="4" opacity="0.2"/>
    <line id="Line_3" data-name="Line 3" x2="132" y2="91" transform="translate(3 1201)" fill="none" stroke="#05c2c9" stroke-width="4" opacity="0.2"/>
    <line id="Line_4" data-name="Line 4" y1="32" x2="138.5" transform="translate(3 1169)" fill="none" stroke="#05c2c9" stroke-width="4" opacity="0.2"/>
    <line id="Line_5" data-name="Line 5" y1="32" x2="138.5" transform="translate(3 1296)" fill="none" stroke="#fff" stroke-width="4" opacity="0.2"/>
    <line id="Line_6" data-name="Line 6" x2="99.5" y2="71" transform="translate(3 1095)" fill="none" stroke="#05c2c9" stroke-width="4" opacity="0.2"/>
    <line id="Line_7" data-name="Line 7" x2="64" y2="44" transform="translate(3 1125.5)" fill="none" stroke="#05c2c9" stroke-width="4" opacity="0.2"/>
    <line id="Line_8" data-name="Line 8" x2="36" y2="26" transform="translate(3.5 1152)" fill="none" stroke="#05c2c9" stroke-width="4" opacity="0.2"/>
    <line id="Line_9" data-name="Line 9" x2="15" y2="9" transform="translate(0 1173.5)" fill="none" stroke="#05c2c9" stroke-width="4" opacity="0.2"/>
    <line id="Line_10" data-name="Line 10" x2="93.5" y2="67" transform="translate(3 1224.5)" fill="none" stroke="#05c2c9" stroke-width="4" opacity="0.2"/>
    <line id="Line_11" data-name="Line 11" x2="54" y2="37" transform="translate(3 1255)" fill="none" stroke="#05c2c9" stroke-width="4" opacity="0.2"/>
    <line id="Line_12" data-name="Line 12" x2="22" y2="16" transform="translate(17.5 1291.5)" fill="none" stroke="#fff" stroke-width="4" opacity="0.2"/>
    <line id="Line_13" data-name="Line 13" x2="15" y2="9" transform="translate(2 1303)" fill="none" stroke="#fff" stroke-width="4" opacity="0.2"/>
    <line id="Line_18" data-name="Line 18" x2="6" y2="4" transform="translate(96.5 1291.5)" fill="none" stroke="#fff" stroke-width="4" opacity="0.2"/>
    <line id="Line_19" data-name="Line 19" x2="10" y2="7" transform="translate(57 1292)" fill="none" stroke="#fff" stroke-width="4" opacity="0.2"/>
    <line id="Line_20" data-name="Line 20" x2="14" y2="10" transform="translate(3.5 1281.5)" fill="none" stroke="#05c2c9" stroke-width="4" opacity="0.2"/>
  </g>
</svg>
